<?xml version="1.0" encoding="UTF-8" standalone="no"?>
<svg
   xmlns:dc="http://purl.org/dc/elements/1.1/"
   xmlns:cc="http://creativecommons.org/ns#"
   xmlns:rdf="http://www.w3.org/1999/02/22-rdf-syntax-ns#"
   xmlns:svg="http://www.w3.org/2000/svg"
   xmlns="http://www.w3.org/2000/svg"
   xmlns:xlink="http://www.w3.org/1999/xlink"
   xmlns:sodipodi="http://sodipodi.sourceforge.net/DTD/sodipodi-0.dtd"
   xmlns:inkscape="http://www.inkscape.org/namespaces/inkscape"
   version="1.1"
   x="0px"
   y="0px"
   viewBox="0 0 100 125"
   enable-background="new 0 0 100 100"
   xml:space="preserve"
   id="svg71"
   sodipodi:docname="two-tickets.svg"
   inkscape:version="0.92.1 r15371"><metadata
     id="metadata77"><rdf:RDF><cc:Work
         rdf:about=""><dc:format>image/svg+xml</dc:format><dc:type
           rdf:resource="http://purl.org/dc/dcmitype/StillImage" /><dc:title></dc:title></cc:Work></rdf:RDF></metadata><defs
     id="defs75" /><sodipodi:namedview
     pagecolor="#ffffff"
     bordercolor="#666666"
     borderopacity="1"
     objecttolerance="10"
     gridtolerance="10"
     guidetolerance="10"
     inkscape:pageopacity="0"
     inkscape:pageshadow="2"
     inkscape:window-width="1268"
     inkscape:window-height="1182"
     id="namedview73"
     showgrid="false"
     inkscape:zoom="5.3400704"
     inkscape:cx="27.052346"
     inkscape:cy="43.437148"
     inkscape:window-x="3840"
     inkscape:window-y="16"
     inkscape:window-maximized="0"
     inkscape:current-layer="g65"
     inkscape:pagecheckerboard="true" /><symbol
     viewBox="-27.299 -39.024 54.598 78.047"
     id="symbol6"><path
       fill="none"
       d="M11.157,34.02c-1.275-1.85-3.408-3.026-5.733-3.026c-2.13,0-4.118,0.985-5.424,2.607   c-1.306-1.622-3.294-2.607-5.423-2.607c-2.325,0-4.457,1.176-5.734,3.026c-1.275-1.85-3.408-3.026-5.733-3.026   c-1.913,0-3.648,0.776-4.908,2.029v-66.474c1.26,1.253,2.995,2.029,4.908,2.029c2.325,0,4.458-1.176,5.733-3.026   c1.277,1.85,3.409,3.026,5.734,3.026c2.129,0,4.117-0.986,5.423-2.607c1.306,1.622,3.294,2.607,5.424,2.607   c2.325,0,4.458-1.176,5.733-3.026c1.277,1.85,3.409,3.026,5.734,3.026c1.913,0,3.647-0.776,4.907-2.028v66.473   c-1.26-1.253-2.994-2.028-4.907-2.028C14.567,30.995,12.435,32.17,11.157,34.02z"
       id="path2" /><path
       fill="#000000"
       stroke="#000000"
       stroke-width="3"
       stroke-miterlimit="10"
       d="M-20.463-37.524   c0.391,1.615,1.839,2.822,3.573,2.822c1.733,0,3.181-1.207,3.572-2.822h4.323c0.391,1.615,1.839,2.822,3.573,2.822   s3.182-1.207,3.573-2.822h3.701c0.391,1.615,1.839,2.822,3.573,2.822s3.182-1.207,3.573-2.822h4.322   c0.391,1.615,1.839,2.822,3.573,2.822s3.182-1.207,3.573-2.822h5.335v75.047h-5.266c-0.219-1.825-1.759-3.25-3.641-3.25   s-3.423,1.425-3.641,3.25H9.065c-0.219-1.825-1.759-3.25-3.641-3.25s-3.423,1.425-3.641,3.25h-3.564   c-0.219-1.825-1.759-3.25-3.641-3.25s-3.423,1.425-3.641,3.25h-4.186c-0.219-1.825-1.758-3.25-3.641-3.25   c-1.883,0-3.423,1.425-3.641,3.25h-5.267v-75.047H-20.463z"
       id="path4" /></symbol><symbol
     viewBox="-30.282 -48.056 60.563 94.113"
     id="symbol12"><path
       fill="#000000"
       stroke="#000000"
       stroke-width="6"
       stroke-miterlimit="10"
       d="M16.006,43.056   c-3.233-4.883-8.77-8.108-15.065-8.108s-11.832,3.225-15.065,8.108h-10.584v-88.113h10.584c3.233,4.883,8.77,8.108,15.065,8.108   s11.832-3.224,15.065-8.108H26.59v88.113H16.006z"
       id="path8" /><line
       fill="none"
       stroke="#000000"
       stroke-width="5"
       stroke-linecap="round"
       stroke-linejoin="round"
       stroke-miterlimit="10"
       stroke-dasharray="7,8"
       x1="27.781"
       y1="-20.755"
       x2="-27.782"
       y2="-20.755"
       id="line10" /></symbol><symbol
     viewBox="-24.712 -42.833 54.356 85.667"
     id="symbol18"><path
       fill="#000000"
       stroke="#000000"
       stroke-width="5"
       stroke-miterlimit="10"
       d="M17.181,40.333h-4.475   c-0.466-2.355-2.539-4.131-5.031-4.131c-2.491,0-4.565,1.776-5.03,4.131h-4.883c-0.466-2.355-2.539-4.131-5.031-4.131   c-2.491,0-4.565,1.776-5.03,4.131h-4.883c-0.466-2.355-2.539-4.131-5.03-4.131v-72.023c2.622,0,4.76-1.974,5.069-4.512h4.806   c0.309,2.539,2.447,4.512,5.069,4.512c2.622,0,4.76-1.974,5.069-4.512h4.806c0.309,2.539,2.447,4.512,5.069,4.512   c2.622,0,4.76-1.974,5.069-4.512h4.398c0.309,2.539,2.447,4.512,5.069,4.512v72.023C19.72,36.202,17.647,37.978,17.181,40.333z"
       id="path14" /><line
       fill="none"
       stroke="#000000"
       stroke-width="4"
       stroke-linecap="round"
       stroke-linejoin="round"
       stroke-miterlimit="10"
       stroke-dasharray="7,6"
       x1="-22.644"
       y1="-17.395"
       x2="27.644"
       y2="-17.395"
       id="line16" /></symbol><symbol
     viewBox="-23.972 -42.094 47.944 84.188"
     id="symbol26"><g
       id="g22"><path
         fill="#000000"
         stroke="#000000"
         stroke-width="3.521"
         stroke-miterlimit="10"
         d="M17.182,40.333h-4.475    c-0.466-2.355-2.539-4.131-5.031-4.131c-2.491,0-4.565,1.776-5.03,4.131h-4.883c-0.466-2.355-2.539-4.131-5.031-4.131    c-2.491,0-4.565,1.776-5.03,4.131h-4.883c-0.466-2.355-2.539-4.131-5.03-4.131v-72.023c2.622,0,4.76-1.974,5.069-4.512h4.806    c0.309,2.539,2.447,4.512,5.069,4.512c2.622,0,4.76-1.974,5.069-4.512h4.806c0.309,2.539,2.447,4.512,5.069,4.512    c2.622,0,4.76-1.974,5.069-4.512h4.398c0.309,2.539,2.447,4.512,5.069,4.512v72.023C19.721,36.202,17.648,37.978,17.182,40.333z"
         id="path20" /></g><polygon
       fill="#000000"
       stroke="#000000"
       stroke-width="3.8113"
       stroke-miterlimit="10"
       points="5.14,17.02 11.952,13.853    8.431,7.217 7.524,-0.241 0.124,1.057 -7.248,-0.385 -8.301,7.053 -11.951,13.62 -5.201,16.919 -0.084,22.42  "
       id="polygon24" /></symbol><symbol
     id="a"
     viewBox="-21.087 -31.266 42.17 72.87"><path
       fill="#000000"
       stroke="#000000"
       stroke-width="5"
       stroke-miterlimit="10"
       d="M6.373,39.104h5.21c0-3.87,3.13-7,7-7v-53.87   c-3.87,0-7-3.14-7-7h-5.21"
       id="path28" /><path
       fill="#000000"
       stroke="#000000"
       stroke-width="5"
       stroke-miterlimit="10"
       d="M-6.377-28.766h-5.21c0,3.86-3.13,7-7,7v53.87   c3.87,0,7,3.13,7,7h5.21"
       id="path30" /><line
       fill="none"
       stroke="#000000"
       stroke-width="5"
       stroke-miterlimit="10"
       x1="2.373"
       y1="39.104"
       x2="-2.377"
       y2="39.104"
       id="line32" /><line
       fill="none"
       stroke="#000000"
       stroke-width="5"
       stroke-miterlimit="10"
       x1="2.373"
       y1="-28.766"
       x2="-2.377"
       y2="-28.766"
       id="line34" /><g
       id="g44"><path
         stroke="#000000"
         stroke-width="0.9"
         stroke-miterlimit="10"
         d="M-9.901-10.118c0-0.994-0.806-1.8-1.8-1.8    s-1.8,0.806-1.8,1.8s0.806,1.8,1.8,1.8S-9.901-9.124-9.901-10.118z"
         id="path36" /><path
         stroke="#000000"
         stroke-width="0.9"
         stroke-miterlimit="10"
         d="M-2.101-10.118c0-0.994-0.806-1.8-1.8-1.8    s-1.8,0.806-1.8,1.8s0.806,1.8,1.8,1.8S-2.101-9.124-2.101-10.118z"
         id="path38" /><path
         stroke="#000000"
         stroke-width="0.9"
         stroke-miterlimit="10"
         d="M5.699-10.118c0-0.994-0.806-1.8-1.8-1.8s-1.8,0.806-1.8,1.8    s0.806,1.8,1.8,1.8S5.699-9.124,5.699-10.118z"
         id="path40" /><path
         stroke="#000000"
         stroke-width="0.9"
         stroke-miterlimit="10"
         d="M13.499-10.118c0-0.994-0.806-1.8-1.8-1.8    s-1.8,0.806-1.8,1.8s0.806,1.8,1.8,1.8S13.499-9.124,13.499-10.118z"
         id="path42" /></g></symbol><symbol
     viewBox="-21.086 -31.266 42.17 72.87"
     id="symbol51"><use
       xlink:href="#a"
       width="42.17"
       height="72.87"
       x="-21.087"
       y="-31.266"
       transform="matrix(1 0 0 1 6.996482e-004 -2.671033e-004)"
       overflow="visible"
       id="use47" /><line
       fill="none"
       stroke="#000000"
       stroke-width="4"
       stroke-miterlimit="10"
       x1="9.224"
       y1="13.75"
       x2="-9.223"
       y2="13.75"
       id="line49" /></symbol><g
     display="none"
     id="g55"><path
       display="inline"
       fill="#000000"
       d="M1057,603.978H-182.377c-1.65,0-3-1.35-3-3v-742.857c0-1.65,1.35-3,3-3H1057   c1.65,0,3,1.35,3,3v742.857C1060,602.628,1058.65,603.978,1057,603.978z"
       id="path53" /></g><g
     id="g65"><path
       d="M90.893,44.769l-5.495-1.238l-2.401-8.847l-1.736-0.006c-2.861-0.01-5.381-1.942-6.13-4.7   c-0.749-2.758,0.449-5.7,2.912-7.154l1.495-0.883L76.005,8.934c-0.83-3.06-3.996-4.873-7.056-4.044L8.864,21.201   c-1.479,0.401-2.714,1.358-3.479,2.693c-0.765,1.335-0.965,2.885-0.563,4.363l3.531,13.009l1.736,0.006   c2.86,0.01,5.381,1.942,6.13,4.7c0.749,2.758-0.449,5.7-2.912,7.155l-1.494,0.883l3.531,13.008   c0.123,0.453,0.314,0.873,0.537,1.274l-1.424,6.323c-0.696,3.093,1.253,6.176,4.346,6.873L79.541,95.17   c0.423,0.095,0.846,0.141,1.263,0.141c2.629,0,5.008-1.818,5.61-4.487l2.962-13.15l-1.532-0.817   c-2.523-1.346-3.848-4.233-3.22-7.021c0.628-2.787,3.063-4.828,5.92-4.962l1.734-0.082l2.962-13.149   c0.337-1.495,0.069-3.035-0.753-4.335C93.664,46.007,92.388,45.105,90.893,44.769z M11.879,36.868l-2.662-9.804   c-0.111-0.411,0.027-0.743,0.12-0.905c0.093-0.162,0.309-0.45,0.72-0.561l11.753-3.19l1.385,5.104   c0.22,0.812,0.956,1.345,1.758,1.345c0.158,0,0.318-0.021,0.478-0.064c0,0,0,0,0,0c0.971-0.264,1.545-1.265,1.281-2.236   l-1.385-5.104L70.143,9.286c0.627-0.166,1.296,0.215,1.466,0.84l2.662,9.804c-3.222,2.7-4.663,7.092-3.537,11.242   c1.127,4.15,4.591,7.21,8.736,7.91l2.662,9.804c0.169,0.625-0.215,1.296-0.84,1.466L36.475,62.519l-1.001-3.689   c-0.263-0.971-1.262-1.546-2.236-1.281h0c-0.971,0.264-1.545,1.265-1.281,2.236l1.001,3.688l-11.753,3.191   c-0.408,0.111-0.742-0.027-0.904-0.12c-0.162-0.092-0.45-0.309-0.561-0.72l-2.662-9.804c3.222-2.7,4.663-7.092,3.537-11.243   C19.487,40.628,16.023,37.568,11.879,36.868z M66.505,62.028l2.971,4.343l-4.494,2.738l-3.212,4.168l-3.993-3.428l-4.957-1.768   l2.026-4.856l0.028-0.981l10.975-2.979L66.505,62.028z M90.795,50.642l-2.232,9.911c-4.11,0.88-7.438,4.088-8.383,8.283   c-0.944,4.195,0.687,8.521,4.022,11.077l-2.232,9.911c-0.143,0.631-0.796,1.045-1.428,0.903L35.239,80.521l0.84-3.729   c0.221-0.981-0.396-1.957-1.377-2.178c0,0,0,0,0,0c-0.981-0.219-1.956,0.396-2.178,1.377l-0.84,3.728l-11.88-2.676   c-0.632-0.142-1.045-0.796-0.903-1.428l1.003-4.451c0.327,0.058,0.656,0.098,0.988,0.098c0.503,0,1.01-0.067,1.508-0.202   l11.967-3.249l-0.241,1.069c-0.221,0.982,0.396,1.957,1.377,2.178c0,0,0,0,0,0c0.135,0.03,0.27,0.045,0.402,0.045   c0.833,0,1.585-0.575,1.776-1.422l0.664-2.95l12.507-3.395l-2.873,6.888l7.938,2.831l6.395,5.489l5.145-6.675l7.197-4.386   l-4.758-6.957l-0.527-2.218l13.116-3.56c2.795-0.759,4.543-3.466,4.194-6.26l3.215,0.724c0.415,0.093,0.644,0.372,0.743,0.529   C90.735,49.9,90.889,50.227,90.795,50.642z"
       id="path57"
       style="fill:#005c94"
       inkscape:export-filename="/home/remche/geekeries/ethereum/tomboleth/app/images/two-tickets.png"
       inkscape:export-xdpi="528.61426"
       inkscape:export-ydpi="528.61426" /><path
       d="M29.812,44.929L29.812,44.929c-0.971,0.264-1.545,1.265-1.281,2.236l1.516,5.585c0.22,0.812,0.956,1.345,1.758,1.345   c0.158,0,0.318-0.021,0.479-0.064c0.971-0.264,1.545-1.265,1.281-2.236l-1.516-5.585C31.785,45.239,30.789,44.668,29.812,44.929z"
       id="path59"
       style="fill:#005c94"
       inkscape:export-filename="/home/remche/geekeries/ethereum/tomboleth/app/images/two-tickets.png"
       inkscape:export-xdpi="528.61426"
       inkscape:export-ydpi="528.61426" /><path
       d="M26.621,40.131c0.22,0.812,0.956,1.345,1.758,1.345c0.158,0,0.318-0.021,0.478-0.064h0   c0.971-0.264,1.545-1.265,1.281-2.236l-1.516-5.585c-0.263-0.971-1.26-1.544-2.236-1.281c-0.971,0.264-1.545,1.265-1.281,2.236   L26.621,40.131z"
       id="path61"
       style="fill:#005c94"
       inkscape:export-filename="/home/remche/geekeries/ethereum/tomboleth/app/images/two-tickets.png"
       inkscape:export-xdpi="528.61426"
       inkscape:export-ydpi="528.61426" /><path
       d="M42.921,47.46l8.34-1.21l8.219,1.861l1.427-8.306l4.311-7.242l-7.459-3.924l-5.556-6.337l-6.037,5.881l-7.744,3.325   l3.728,7.559L42.921,47.46z M48.226,31.266l3.769-3.672l3.469,3.957L60.121,34l-2.691,4.522l-0.891,5.186l-5.132-1.162   l-5.208,0.756l-0.481-5.24l-2.328-4.72L48.226,31.266z"
       id="path63"
       style="fill:#005c94"
       inkscape:export-filename="/home/remche/geekeries/ethereum/tomboleth/app/images/two-tickets.png"
       inkscape:export-xdpi="528.61426"
       inkscape:export-ydpi="528.61426" /></g></svg>